<?xml version="1.0" standalone="no"?>
<!DOCTYPE svg PUBLIC "-//W3C//DTD SVG 20010904//EN"
 "http://www.w3.org/TR/2001/REC-SVG-20010904/DTD/svg10.dtd">
<svg version="1.0" xmlns="http://www.w3.org/2000/svg"
 width="452.000000pt" height="452.000000pt" viewBox="0 0 452.000000 452.000000"
 preserveAspectRatio="xMidYMid meet">
<metadata>
Created by potrace 1.14, written by Peter Selinger 2001-2017
</metadata>
<g transform="translate(0.000000,452.000000) scale(0.100000,-0.100000)"
fill="#000000" stroke="none">
<path d="M2263 4448 c-65 -15 -127 -32 -138 -37 -11 -5 -45 -18 -75 -30 -71
-28 -171 -84 -193 -109 -14 -16 -25 -18 -45 -12 -40 11 -68 -4 -82 -44 -6 -20
-16 -36 -21 -36 -13 0 -11 -48 3 -52 8 -3 4 -19 -15 -50 -65 -111 -101 -300
-79 -412 8 -39 7 -52 -4 -63 -17 -17 -18 -49 -3 -59 12 -7 31 15 23 28 -11 17
9 7 25 -14 17 -20 17 -24 -1 -82 -25 -78 -21 -174 8 -213 12 -16 37 -37 56
-48 31 -17 34 -23 25 -42 -18 -42 6 -59 93 -66 16 -1 34 -15 49 -37 14 -19 48
-57 76 -85 79 -77 89 -96 75 -142 -7 -21 -23 -62 -36 -91 l-24 -53 -31 25
c-52 44 -117 33 -218 -38 -45 -32 -65 -39 -154 -52 -132 -19 -143 -22 -199
-51 -99 -49 -258 -215 -328 -341 -77 -137 -114 -212 -150 -297 -22 -55 -45
-109 -50 -120 -26 -58 -121 -383 -134 -459 -3 -16 -10 -52 -15 -80 -29 -145
-36 -240 -35 -431 1 -137 6 -188 23 -260 59 -244 195 -398 386 -437 47 -9 55
-14 50 -29 -4 -11 2 -26 14 -38 26 -26 36 -26 54 -1 8 11 16 18 18 16 6 -5 88
-16 179 -23 166 -13 1028 -6 1395 12 39 2 135 6 215 10 80 4 163 8 185 10 22
1 94 6 160 9 65 4 123 10 128 13 4 3 16 -2 25 -10 30 -26 67 -26 81 2 8 14 6
25 -9 43 -28 37 -33 76 -10 83 11 3 36 27 57 52 21 24 43 50 48 56 6 7 37 52
69 100 66 101 112 194 131 266 17 64 11 181 -12 251 -19 55 -19 57 1 100 40
92 15 194 -79 330 -70 101 -94 158 -165 390 -68 220 -90 280 -141 386 -100
206 -251 319 -431 323 -35 1 -38 3 -38 29 0 69 -75 108 -194 100 -41 -3 -79
-2 -84 1 -15 10 -62 104 -56 113 3 4 15 8 27 8 12 0 47 12 77 26 181 84 274
234 287 459 5 87 8 103 28 122 39 38 78 132 83 204 l4 65 34 1 c40 1 55 9 48
26 -3 9 -20 12 -49 10 -25 -2 -45 0 -45 5 0 21 -42 55 -81 66 -40 12 -42 15
-46 54 -3 30 0 42 9 42 41 0 53 111 19 179 -20 39 -21 43 -5 73 9 17 18 53 19
80 2 40 -1 52 -20 66 -12 10 -21 25 -19 35 1 9 -6 22 -17 27 -10 6 -19 19 -19
30 0 22 -9 26 -120 46 -19 4 -96 28 -170 54 -126 44 -141 47 -232 47 -71 0
-129 -8 -215 -29z m822 -744 c45 -12 58 -66 41 -177 -8 -49 -65 -154 -67 -122
-1 28 -7 126 -13 223 -6 86 -4 88 39 76z"/>
</g>
</svg>
