<?xml version="1.0" standalone="no"?>
<!DOCTYPE svg PUBLIC "-//W3C//DTD SVG 20010904//EN"
 "http://www.w3.org/TR/2001/REC-SVG-20010904/DTD/svg10.dtd">
<svg version="1.0" xmlns="http://www.w3.org/2000/svg"
 width="447.000000pt" height="447.000000pt" viewBox="0 0 447.000000 447.000000"
 preserveAspectRatio="xMidYMid meet">
<metadata>
Created by potrace 1.14, written by Peter Selinger 2001-2017
</metadata>
<g transform="translate(0.000000,447.000000) scale(0.100000,-0.100000)"
fill="#000000" stroke="none">
<path d="M2475 4433 c-102 -20 -253 -62 -309 -85 -88 -36 -186 -91 -209 -116
-15 -16 -25 -18 -47 -12 -36 10 -74 -8 -78 -39 -2 -14 -10 -31 -18 -38 -16
-17 -18 -32 -4 -53 6 -10 2 -27 -15 -56 -63 -107 -102 -316 -77 -407 8 -29 7
-44 -5 -67 -15 -31 -12 -60 6 -60 5 0 13 9 16 21 l7 21 16 -23 c14 -20 14 -28
-3 -90 -32 -127 -11 -209 66 -254 32 -18 34 -23 25 -47 -12 -35 5 -57 39 -50
15 2 25 0 25 -7 0 -8 11 -11 28 -9 22 2 33 -5 55 -35 16 -22 27 -40 25 -42 -2
-2 -35 -5 -73 -6 -175 -6 -258 -50 -310 -164 -13 -28 -29 -56 -36 -62 -8 -6
-43 -14 -79 -17 -106 -11 -170 -49 -221 -133 -32 -51 -48 -127 -45 -211 2 -66
6 -78 28 -97 l25 -21 -45 -50 c-99 -109 -233 -300 -306 -435 -44 -83 -99 -230
-111 -299 -12 -73 -23 -158 -30 -235 -4 -58 -15 -176 -20 -220 -9 -89 -29
-190 -80 -395 -11 -43 -47 -209 -52 -235 -11 -66 -12 -252 -1 -295 18 -74 40
-88 78 -50 13 13 28 18 43 15 39 -9 279 -34 402 -41 250 -16 759 -6 1110 21
179 14 266 17 264 9 -1 -5 0 -18 1 -29 1 -16 4 -14 15 10 13 30 15 31 95 33
44 2 95 5 113 8 18 3 255 7 527 10 272 2 501 7 509 9 11 5 13 27 8 118 -3 61
-11 137 -17 167 -6 30 -13 69 -16 85 -3 17 -14 71 -24 120 -41 196 -62 359
-75 605 -6 114 -14 206 -31 370 -9 94 -15 136 -24 180 -5 25 -11 56 -13 70 -9
49 -49 186 -64 220 -108 248 -223 397 -373 483 -27 14 -40 29 -40 43 0 65 -61
161 -130 207 l-48 31 47 47 c88 88 126 186 137 353 6 88 9 103 31 125 42 43
75 128 81 201 l4 67 36 1 c46 2 61 17 32 32 -15 8 -30 8 -49 2 -24 -9 -29 -7
-39 17 -13 30 -43 51 -81 58 -32 5 -31 3 -36 47 -4 30 -1 41 20 59 34 29 37
104 7 166 -19 38 -20 46 -8 70 8 14 17 47 21 73 6 40 4 49 -15 68 -19 19 -26
34 -29 63 -1 4 -7 7 -15 7 -9 0 -16 12 -18 27 -3 23 -9 29 -43 35 -22 3 -55 9
-72 12 -18 4 -83 25 -145 47 -62 22 -122 43 -133 46 -24 7 -201 12 -230 6z
m731 -787 c26 -21 28 -29 26 -89 -2 -70 -31 -164 -60 -190 -16 -15 -17 -12
-18 41 0 31 -3 103 -6 160 -7 96 -6 102 12 102 10 0 31 -11 46 -24z"/>
</g>
</svg>
