<?xml version="1.0" standalone="no"?>
<!DOCTYPE svg PUBLIC "-//W3C//DTD SVG 20010904//EN"
 "http://www.w3.org/TR/2001/REC-SVG-20010904/DTD/svg10.dtd">
<svg version="1.0" xmlns="http://www.w3.org/2000/svg"
 width="500.000000pt" height="500.000000pt" viewBox="0 0 500.000000 500.000000"
 preserveAspectRatio="xMidYMid meet">
<metadata>
Created by potrace 1.14, written by Peter Selinger 2001-2017
</metadata>
<g transform="translate(0.000000,500.000000) scale(0.100000,-0.100000)"
fill="#000000" stroke="none">
<path d="M3120 4044 c-83 -39 -188 -139 -229 -215 l-23 -44 -87 -1 c-47 0
-117 -3 -156 -7 l-70 -7 -30 52 c-41 72 -130 159 -189 187 -27 12 -72 25 -100
28 -45 4 -55 2 -88 -24 -43 -33 -64 -65 -83 -130 -14 -45 -22 -193 -12 -210 3
-4 7 -24 10 -43 6 -35 5 -35 -81 -86 l-87 -52 -34 31 c-47 40 -107 66 -166 69
-46 3 -50 1 -68 -31 -26 -43 -25 -110 2 -181 12 -30 21 -58 21 -62 0 -18 -95
-68 -249 -131 -91 -38 -173 -71 -182 -73 -19 -7 -38 36 -64 143 -10 40 -23 80
-30 90 -11 15 -13 15 -25 -7 -20 -37 -25 -78 -25 -196 l1 -111 -42 -27 c-22
-14 -44 -26 -47 -26 -12 0 -37 99 -43 170 -4 41 -8 82 -10 90 -1 8 -3 21 -3
28 -1 19 -25 14 -39 -9 -48 -77 -72 -254 -47 -349 l14 -52 -38 -57 c-101 -148
-130 -276 -107 -468 l7 -62 -38 -10 c-21 -5 -66 -17 -100 -26 -160 -40 -294
-109 -313 -161 -16 -42 -12 -56 33 -98 59 -58 207 -123 387 -172 42 -11 340
-74 371 -78 19 -2 63 -9 97 -16 34 -6 83 -13 109 -16 27 -2 59 -6 73 -9 14 -2
50 -6 80 -10 30 -3 71 -8 90 -10 19 -3 67 -7 105 -10 39 -3 88 -7 110 -10 64
-7 338 -23 429 -24 l29 -1 -21 -23 c-12 -13 -22 -35 -22 -50 0 -42 27 -49 117
-33 58 11 137 14 308 11 127 -2 239 -6 250 -8 11 -2 49 -8 85 -11 36 -4 76 -9
90 -10 14 -2 50 -7 80 -11 30 -3 57 -8 60 -10 3 -2 32 -6 64 -10 33 -3 62 -8
65 -9 14 -9 145 -19 251 -21 294 -3 534 91 708 280 61 67 62 67 154 90 270 67
438 160 438 243 0 55 -114 127 -271 172 l-76 22 8 42 c5 22 11 86 15 141 10
164 -20 300 -99 449 l-33 63 23 34 c31 44 53 121 53 180 0 47 -1 48 -37 58
-56 16 -107 13 -170 -9 -62 -22 -61 -22 -123 36 -25 24 -67 60 -93 80 -26 20
-47 39 -47 43 0 3 11 28 25 55 15 29 25 66 25 90 0 44 -36 132 -64 155 -50 42
-195 -18 -251 -103 l-15 -22 -82 41 c-46 22 -111 53 -146 67 -56 24 -62 29
-58 52 18 100 -117 386 -183 386 -9 0 -50 -16 -91 -36z"/>
</g>
</svg>
